<svg width="51" height="26" viewBox="0 0 51 26" fill="none" xmlns="http://www.w3.org/2000/svg">
<path d="M0.5 13C0.5 5.8203 6.3203 0 13.5 0H37.5C44.6797 0 50.5 5.8203 50.5 13C50.5 20.1797 44.6797 26 37.5 26H13.5C6.3203 26 0.5 20.1797 0.5 13Z" fill="#2D4059"/>
<path d="M21 11.3H15.275L13.5 5.75L11.725 11.3H6L10.625 14.725L8.875 20.25L13.5 16.825L18.125 20.25L16.35 14.7L21 11.3Z" fill="#FFCE31"/>
<path d="M26.98 14.792V14.168L31.432 8.6H32.392L27.976 14.168L27.508 14.024H34.264V14.792H26.98ZM31.72 17V14.792L31.744 14.024V12.08H32.584V17H31.72ZM36.14 17.06C35.964 17.06 35.812 16.996 35.684 16.868C35.564 16.74 35.504 16.584 35.504 16.4C35.504 16.208 35.564 16.052 35.684 15.932C35.812 15.812 35.964 15.752 36.14 15.752C36.316 15.752 36.464 15.812 36.584 15.932C36.712 16.052 36.776 16.208 36.776 16.4C36.776 16.584 36.712 16.74 36.584 16.868C36.464 16.996 36.316 17.06 36.14 17.06ZM40.8509 8.528C41.5949 8.528 42.2229 8.696 42.7349 9.032C43.2469 9.36 43.6349 9.836 43.8989 10.46C44.1629 11.084 44.2949 11.84 44.2949 12.728C44.2949 13.672 44.1309 14.468 43.8029 15.116C43.4829 15.764 43.0349 16.252 42.4589 16.58C41.8829 16.908 41.2149 17.072 40.4549 17.072C40.0789 17.072 39.7189 17.036 39.3749 16.964C39.0389 16.892 38.7349 16.776 38.4629 16.616L38.8109 15.92C39.0269 16.064 39.2749 16.168 39.5549 16.232C39.8429 16.288 40.1389 16.316 40.4429 16.316C41.3469 16.316 42.0669 16.028 42.6029 15.452C43.1469 14.876 43.4189 14.016 43.4189 12.872C43.4189 12.688 43.4069 12.468 43.3829 12.212C43.3669 11.956 43.3229 11.7 43.2509 11.444L43.5509 11.672C43.4709 12.088 43.2989 12.444 43.0349 12.74C42.7789 13.028 42.4589 13.248 42.0749 13.4C41.6989 13.552 41.2789 13.628 40.8149 13.628C40.2629 13.628 39.7709 13.524 39.3389 13.316C38.9149 13.108 38.5829 12.816 38.3429 12.44C38.1029 12.064 37.9829 11.62 37.9829 11.108C37.9829 10.58 38.1069 10.124 38.3549 9.74C38.6029 9.356 38.9429 9.06 39.3749 8.852C39.8149 8.636 40.3069 8.528 40.8509 8.528ZM40.8869 9.26C40.4869 9.26 40.1309 9.336 39.8189 9.488C39.5149 9.632 39.2749 9.84 39.0989 10.112C38.9229 10.384 38.8349 10.708 38.8349 11.084C38.8349 11.636 39.0229 12.076 39.3989 12.404C39.7829 12.732 40.2989 12.896 40.9469 12.896C41.3789 12.896 41.7549 12.816 42.0749 12.656C42.4029 12.496 42.6549 12.276 42.8309 11.996C43.0149 11.716 43.1069 11.404 43.1069 11.06C43.1069 10.748 43.0229 10.456 42.8549 10.184C42.6869 9.912 42.4389 9.692 42.1109 9.524C41.7829 9.348 41.3749 9.26 40.8869 9.26Z" fill="white"/>
</svg>
